<svg xmlns="http://www.w3.org/2000/svg" width="60" height="60" viewBox="0 0 60 60"><path data-name="Forma 1" d="M32.41 46l12.3 12.29a1.008 1.008 0 010 1.42 1.014 1.014 0 01-1.42 0L31 47.41V57a1 1 0 01-2 0v-9.59l-12.29 12.3a1.014 1.014 0 01-1.42 0 1.008 1.008 0 010-1.42L27.59 46H0V4h29V1a1 1 0 012 0v3h29v42H32.41zM58 6H2v38h56V6zM30 9a16 16 0 11-16 16A16.021 16.021 0 0130 9zm0 30a14 14 0 10-14-14 14.015 14.015 0 0014 14zm-4.48-21.88a1.008 1.008 0 011.02.04l11 7a1 1 0 010 1.68l-11 7A.972.972 0 0126 33a1.034 1.034 0 01-.48-.12A1.006 1.006 0 0125 32V18a1.006 1.006 0 01.52-.88zM27 30.18L35.14 25 27 19.82v10.36z" fill="#385543" fill-rule="evenodd"/></svg>