<svg xmlns="http://www.w3.org/2000/svg" width="63" height="58.82" viewBox="0 0 63 58.82"><path d="M62.362 14.62l-14.053 5.82v1.9l12.6-5.19v-.35a1.05 1.05 0 012.1 0v1.05a1.041 1.041 0 01-.65.97l-14.052 5.79v13.02a10.764 10.764 0 002.1-3.17V27.3a1.05 1.05 0 012.1 0v7.35a1.106 1.106 0 01-.057.35 12.819 12.819 0 01-4.143 5.44v5.96a3.151 3.151 0 11-2.1 0V20.53l-11.985-4.48a5 5 0 01-2.717.75c-2.356 0-4.2-1.38-4.2-3.15s1.845-3.15 4.2-3.15 4.2 1.39 4.2 3.15a2.5 2.5 0 01-.1.68l11.549 4.31 12.057-4.99L31.502 2.19 3.794 13.65l27.708 11.47 10.611-4.39a1.05 1.05 0 01.8 1.94l-11.012 4.55a1.045 1.045 0 01-.8 0L.646 14.62a1.042 1.042 0 01-.649-.97 1.062 1.062 0 01.649-.97L31.101.08a1.11 1.11 0 01.8 0l30.455 12.6a1.063 1.063 0 01.648.97 1.042 1.042 0 01-.642.97zM31.506 12.6c-1.282 0-2.1.62-2.1 1.05s.818 1.05 2.1 1.05 2.1-.62 2.1-1.05-.813-1.05-2.096-1.05zm15.753 35.7a1.05 1.05 0 101.05 1.05 1.05 1.05 0 00-1.047-1.05zM1.052 15.75a1.05 1.05 0 011.05 1.05v.35l29.4 12.17 11.149-4.62a1.058 1.058 0 011.372.57 1.045 1.045 0 01-.568 1.37l-11.551 4.78a1.045 1.045 0 01-.8 0L.649 18.82A1.042 1.042 0 010 17.85V16.8a1.051 1.051 0 011.056-1.05zm10.5 10.5a1.05 1.05 0 011.05 1.05v7.13c.605 1.32 4.813 9.22 17.852 9.63v-9.41a1.051 1.051 0 012.1 0v9.42a24.3 24.3 0 0010.036-2.29 1.053 1.053 0 01.931 1.89 27.113 27.113 0 01-12.017 2.53c-16.276 0-20.746-10.7-20.929-11.16a1.022 1.022 0 01-.074-.39V27.3a1.05 1.05 0 011.061-1.05zM43.088 53.3a1.05 1.05 0 112.037.51l-1.05 4.2a1.054 1.054 0 01-1.018.79 1.116 1.116 0 01-.255-.03 1.046 1.046 0 01-.764-1.27zm4.169.25a1.05 1.05 0 011.05 1.05v3.15a1.05 1.05 0 11-2.1 0V54.6a1.049 1.049 0 011.055-1.05zm2.9-1.02a1.057 1.057 0 011.273.77l1.05 4.2a1.048 1.048 0 01-.765 1.27 1.116 1.116 0 01-.255.03 1.052 1.052 0 01-1.017-.79l-1.051-4.2a1.054 1.054 0 01.77-1.28z" fill="#385543" fill-rule="evenodd"/></svg>