<svg xmlns="http://www.w3.org/2000/svg" width="54.688" height="54.65" viewBox="0 0 54.688 54.65"><path d="M40.384 11.8a76.765 76.765 0 00-8.066 3.58.877.877 0 01-.413.1.909.909 0 01-.414-1.72 77.027 77.027 0 018.342-3.7.909.909 0 011.144.59.921.921 0 01-.593 1.15zm-8.893 7.42a79.117 79.117 0 018.342-3.7.913.913 0 01.551 1.74 78.377 78.377 0 00-8.066 3.59 1.015 1.015 0 01-.413.1.928.928 0 01-.814-.5.917.917 0 01.4-1.23zm0 5.47a77.027 77.027 0 018.342-3.7.909.909 0 011.144.59.921.921 0 01-.593 1.15 76.765 76.765 0 00-8.066 3.58.877.877 0 01-.413.1.909.909 0 01-.414-1.72zm0 10.93a77.027 77.027 0 018.342-3.7.908.908 0 11.551 1.73 78.377 78.377 0 00-8.066 3.59.877.877 0 01-.413.1.909.909 0 01-.414-1.72zm0-5.47a79.117 79.117 0 018.342-3.7.913.913 0 01.551 1.74 78.377 78.377 0 00-8.066 3.59 1 1 0 01-.413.09.908.908 0 01-.414-1.72zm-8.726 9.7a.917.917 0 01-1.1.68c-5.187-1.21-11.346.4-11.407.42a.962.962 0 01-.237.03.91.91 0 01-.235-1.79c.269-.07 6.665-1.75 12.294-.43a.9.9 0 01.685 1.09zm0-5.46a.917.917 0 01-1.1.68c-5.187-1.22-11.346.4-11.407.42a.962.962 0 01-.237.03.911.911 0 01-.235-1.79c.269-.08 6.665-1.76 12.294-.44a.918.918 0 01.685 1.1zm0-5.47a.909.909 0 01-1.1.68c-5.187-1.21-11.346.41-11.407.42a.962.962 0 01-.237.03.9.9 0 01-.879-.67.913.913 0 01.644-1.12c.269-.07 6.665-1.75 12.294-.43a.9.9 0 01.685 1.09zm-1.1-10.25c-5.187-1.21-11.346.41-11.407.42a.962.962 0 01-.237.03.9.9 0 01-.879-.67.913.913 0 01.644-1.12c.269-.07 6.665-1.75 12.294-.43a.909.909 0 11-.41 1.77zm1.1 4.79a.917.917 0 01-1.1.68c-5.187-1.22-11.346.4-11.407.42a.962.962 0 01-.237.03.911.911 0 01-.235-1.79c.269-.07 6.665-1.75 12.294-.44a.918.918 0 01.685 1.1zm27.371 31.18H4.558A4.559 4.559 0 010 50.09V14.57a.912.912 0 011.823 0v35.52a2.733 2.733 0 002.735 2.73h21.877v-2.14a19.855 19.855 0 00-7.292-1.5 58.34 58.34 0 00-14.336 1.79 1.047 1.047 0 01-.249.03.9.9 0 01-.912-.91V10.02a.912.912 0 01.661-.88 58.936 58.936 0 0114.836-1.86 21.05 21.05 0 018.611 1.92.919.919 0 01.5.82v34.85a102.069 102.069 0 0115.5-7.27V2.24a96.034 96.034 0 00-13.19 6.73.913.913 0 01-.966-1.55A97.58 97.58 0 0144.345.06a.9.9 0 01.84.1.911.911 0 01.393.75v37.34a.9.9 0 01-.624.86 103.643 103.643 0 00-17.138 8.12.913.913 0 01-1.381-.78V10.61a19.728 19.728 0 00-7.292-1.5 60 60 0 00-13.674 1.61v38.2a61.22 61.22 0 0113.674-1.56 21.463 21.463 0 018.239 1.74 28.742 28.742 0 019.08-1.74 51.606 51.606 0 0112.762 1.52V10.76c-.3-.06-.691-.14-1.157-.22a.915.915 0 01.33-1.8c1.222.23 1.936.39 1.936.39a.906.906 0 01.714.89v40.07a.913.913 0 01-.378.74.894.894 0 01-.821.12 47.522 47.522 0 00-13.386-1.77 26.7 26.7 0 00-8.2 1.55v2.09H50.14a2.732 2.732 0 002.734-2.73V14.57a.912.912 0 011.823 0v35.52a4.558 4.558 0 01-4.561 4.55z" fill="#385543" fill-rule="evenodd"/></svg>