<svg data-name="Группа 2" xmlns="http://www.w3.org/2000/svg" width="35" height="35" viewBox="0 0 35 35"><circle cx="17.5" cy="17.5" r="16.5" fill="none" stroke="#385543" stroke-linejoin="round" stroke-width="2"/><path d="M28.25 25.711a.765.765 0 01-.66.151 18.826 18.826 0 00-8.27-.159 8.666 8.666 0 015.89-2.007 2 2 0 001.99-1.991v-9.782h.57a.781.781 0 01.78.78V25.1a.771.771 0 01-.3.611zm-3.05-3.227a9.667 9.667 0 00-6.96 2.579V12.82a.745.745 0 01.1-.4c1.73-2.774 5.04-3.2 6.87-3.2a.779.779 0 01.78.78v11.7a.784.784 0 01-.79.784zm-15.15 0a.782.782 0 01-.78-.78v-11.7a.779.779 0 01.78-.78c1.82 0 5.14.426 6.87 3.2a.745.745 0 01.1.4v12.24a9.674 9.674 0 00-6.97-2.58zm5.89 3.218a18.83 18.83 0 00-8.27.159.778.778 0 01-.96-.76V12.7a.781.781 0 01.78-.78h.57v9.78a2 2 0 001.99 1.991 8.682 8.682 0 015.89 2.009z" fill="#385543" fill-rule="evenodd"/></svg>