<svg xmlns="http://www.w3.org/2000/svg" width="23.5" height="17.65" viewBox="0 0 23.5 17.65"><path d="M23.315 8.94c-3 3.99-7.078 6.45-11.569 6.45a12.441 12.441 0 01-3.285-.45l1.854-1.85a4.852 4.852 0 001.753.22 4.875 4.875 0 004.384-6.36l2.98-2.98a18.313 18.313 0 013.883 3.86.93.93 0 010 1.11zm-10.85 2l1.84-1.84a2.678 2.678 0 01-1.843 1.84zm-9.554 5.31L19.174-.01l1.414 1.41L4.325 17.66zm9.1-10.51l-2.9 2.9a2.87 2.87 0 01-.019-.43 2.678 2.678 0 012.486-2.49 2.051 2.051 0 01.429.02zm-.583-2.3a4.908 4.908 0 00-4.138 7.02l-2.682 2.68A17.894 17.894 0 01.18 8.93a.93.93 0 010-1.11c3.006-3.99 7.079-6.45 11.57-6.45a12.261 12.261 0 013.95.68l-1.87 1.87a4.955 4.955 0 00-2.406-.48z" fill="#b5cfd2" fill-rule="evenodd"/></svg>