<svg xmlns="http://www.w3.org/2000/svg" width="63" height="58.82" viewBox="0 0 63 58.82">
<defs>
    <style>
      .cls-1 {
        fill: #385543;
        fill-rule: evenodd;
      }
    </style>
  </defs>
  <path class="cls-1" d="M468.8,1073.46l-14.053,5.82v1.9l12.6-5.19v-0.35a1.05,1.05,0,0,1,2.1,0v1.05a1.041,1.041,0,0,1-.65.97l-14.052,5.79v13.02a10.764,10.764,0,0,0,2.1-3.17v-7.16a1.05,1.05,0,0,1,2.1,0v7.35a1.106,1.106,0,0,1-.057.35,12.819,12.819,0,0,1-4.143,5.44v5.96a3.151,3.151,0,1,1-2.1,0v-22.51h0v-3.36l-11.985-4.48a5,5,0,0,1-2.717.75c-2.356,0-4.2-1.38-4.2-3.15s1.845-3.15,4.2-3.15,4.2,1.39,4.2,3.15a2.5,2.5,0,0,1-.1.68l11.549,4.31,12.057-4.99-27.709-11.46-27.708,11.46,27.708,11.47,10.611-4.39a1.05,1.05,0,0,1,.8,1.94l-11.012,4.55a1.045,1.045,0,0,1-.8,0l-30.455-12.6a1.042,1.042,0,0,1-.649-0.97,1.062,1.062,0,0,1,.649-0.97l30.455-12.6a1.11,1.11,0,0,1,.8,0l30.455,12.6a1.063,1.063,0,0,1,.648.97A1.042,1.042,0,0,1,468.8,1073.46Zm-30.856-2.02c-1.282,0-2.1.62-2.1,1.05s0.818,1.05,2.1,1.05,2.1-.62,2.1-1.05S439.231,1071.44,437.948,1071.44Zm15.753,35.7a1.05,1.05,0,1,0,1.05,1.05A1.05,1.05,0,0,0,453.7,1107.14Zm-46.207-32.55a1.05,1.05,0,0,1,1.05,1.05v0.35l29.4,12.17,11.149-4.62a1.058,1.058,0,0,1,1.372.57,1.045,1.045,0,0,1-.568,1.37l-11.551,4.78a1.045,1.045,0,0,1-.8,0l-30.455-12.6a1.042,1.042,0,0,1-.649-0.97v-1.05A1.051,1.051,0,0,1,407.494,1074.59Zm10.5,10.5a1.05,1.05,0,0,1,1.05,1.05v7.13c0.605,1.32,4.813,9.22,17.852,9.63v-9.41a1.051,1.051,0,0,1,2.1,0v9.42a24.3,24.3,0,0,0,10.036-2.29,1.053,1.053,0,0,1,.931,1.89,27.113,27.113,0,0,1-12.017,2.53c-16.276,0-20.746-10.7-20.929-11.16a1.022,1.022,0,0,1-.074-0.39v-7.35A1.05,1.05,0,0,1,418,1085.09Zm31.536,27.05a1.05,1.05,0,1,1,2.037.51l-1.05,4.2a1.054,1.054,0,0,1-1.018.79,1.116,1.116,0,0,1-.255-0.03,1.046,1.046,0,0,1-.764-1.27Zm4.169,0.25a1.05,1.05,0,0,1,1.05,1.05v3.15a1.05,1.05,0,1,1-2.1,0v-3.15A1.049,1.049,0,0,1,453.7,1112.39Zm2.9-1.02a1.057,1.057,0,0,1,1.273.77l1.05,4.2a1.048,1.048,0,0,1-.765,1.27,1.116,1.116,0,0,1-.255.03,1.052,1.052,0,0,1-1.017-.79l-1.051-4.2A1.054,1.054,0,0,1,456.6,1111.37Z" transform="translate(-406.438 -1058.84)"/>
</svg>
