<svg xmlns="http://www.w3.org/2000/svg" width="54.688" height="54.65" viewBox="0 0 54.688 54.65">
<defs>
    <style>
      .cls-1 {
        fill: #385543;
        fill-rule: evenodd;
      }
    </style>
  </defs>
  <path class="cls-1" d="M761.384,1064.24a76.765,76.765,0,0,0-8.066,3.58,0.877,0.877,0,0,1-.413.1,0.909,0.909,0,0,1-.414-1.72,77.027,77.027,0,0,1,8.342-3.7,0.909,0.909,0,0,1,1.144.59A0.921,0.921,0,0,1,761.384,1064.24Zm-8.893,7.42a79.117,79.117,0,0,1,8.342-3.7,0.913,0.913,0,0,1,.551,1.74,78.377,78.377,0,0,0-8.066,3.59,1.015,1.015,0,0,1-.413.1,0.928,0.928,0,0,1-.814-0.5A0.917,0.917,0,0,1,752.491,1071.66Zm0,5.47a77.027,77.027,0,0,1,8.342-3.7,0.909,0.909,0,0,1,1.144.59,0.921,0.921,0,0,1-.593,1.15,76.765,76.765,0,0,0-8.066,3.58,0.877,0.877,0,0,1-.413.1A0.909,0.909,0,0,1,752.491,1077.13Zm0,10.93a77.027,77.027,0,0,1,8.342-3.7,0.908,0.908,0,1,1,.551,1.73,78.377,78.377,0,0,0-8.066,3.59,0.877,0.877,0,0,1-.413.1A0.909,0.909,0,0,1,752.491,1088.06Zm0-5.47a79.117,79.117,0,0,1,8.342-3.7,0.913,0.913,0,0,1,.551,1.74,78.377,78.377,0,0,0-8.066,3.59,1,1,0,0,1-.413.09A0.908,0.908,0,0,1,752.491,1082.59Zm-8.726,9.7a0.917,0.917,0,0,1-1.1.68c-5.187-1.21-11.346.4-11.407,0.42a0.962,0.962,0,0,1-.237.03,0.91,0.91,0,0,1-.235-1.79c0.269-.07,6.665-1.75,12.294-0.43A0.9,0.9,0,0,1,743.765,1092.29Zm0-5.46a0.917,0.917,0,0,1-1.1.68c-5.187-1.22-11.346.4-11.407,0.42a0.962,0.962,0,0,1-.237.03,0.911,0.911,0,0,1-.235-1.79c0.269-.08,6.665-1.76,12.294-0.44A0.918,0.918,0,0,1,743.765,1086.83Zm0-5.47a0.909,0.909,0,0,1-1.1.68c-5.187-1.21-11.346.41-11.407,0.42a0.962,0.962,0,0,1-.237.03,0.9,0.9,0,0,1-.879-0.67,0.913,0.913,0,0,1,.644-1.12c0.269-.07,6.665-1.75,12.294-0.43A0.9,0.9,0,0,1,743.765,1081.36Zm-1.1-10.25c-5.187-1.21-11.346.41-11.407,0.42a0.962,0.962,0,0,1-.237.03,0.9,0.9,0,0,1-.879-0.67,0.913,0.913,0,0,1,.644-1.12c0.269-.07,6.665-1.75,12.294-0.43A0.909,0.909,0,1,1,742.67,1071.11Zm1.1,4.79a0.917,0.917,0,0,1-1.1.68c-5.187-1.22-11.346.4-11.407,0.42a0.962,0.962,0,0,1-.237.03,0.911,0.911,0,0,1-.235-1.79c0.269-.07,6.665-1.75,12.294-0.44A0.918,0.918,0,0,1,743.765,1075.9Zm27.371,31.18H725.558a4.559,4.559,0,0,1-4.558-4.55v-35.52a0.912,0.912,0,0,1,1.823,0v35.52a2.733,2.733,0,0,0,2.735,2.73h21.877v-2.14a19.855,19.855,0,0,0-7.292-1.5,58.34,58.34,0,0,0-14.336,1.79,1.047,1.047,0,0,1-.249.03,0.9,0.9,0,0,1-.912-0.91v-40.07a0.912,0.912,0,0,1,.661-0.88,58.936,58.936,0,0,1,14.836-1.86,21.05,21.05,0,0,1,8.611,1.92,0.919,0.919,0,0,1,.5.82v34.85a102.069,102.069,0,0,1,15.5-7.27v-35.36a96.034,96.034,0,0,0-13.19,6.73,0.913,0.913,0,0,1-.966-1.55,97.58,97.58,0,0,1,14.747-7.36,0.9,0.9,0,0,1,.84.1,0.911,0.911,0,0,1,.393.75v37.34a0.9,0.9,0,0,1-.624.86,103.643,103.643,0,0,0-17.138,8.12,0.913,0.913,0,0,1-1.381-.78v-35.84a19.728,19.728,0,0,0-7.292-1.5,60,60,0,0,0-13.674,1.61v38.2a61.22,61.22,0,0,1,13.674-1.56,21.463,21.463,0,0,1,8.239,1.74,28.742,28.742,0,0,1,9.08-1.74,51.606,51.606,0,0,1,12.762,1.52V1063.2c-0.3-.06-0.691-0.14-1.157-0.22a0.915,0.915,0,0,1,.33-1.8c1.222,0.23,1.936.39,1.936,0.39a0.906,0.906,0,0,1,.714.89v40.07a0.913,0.913,0,0,1-.378.74,0.894,0.894,0,0,1-.821.12,47.522,47.522,0,0,0-13.386-1.77,26.7,26.7,0,0,0-8.2,1.55v2.09h21.878a2.732,2.732,0,0,0,2.734-2.73v-35.52a0.912,0.912,0,0,1,1.823,0v35.52A4.558,4.558,0,0,1,771.136,1107.08Z" transform="translate(-721 -1052.44)"/>
</svg>
