<svg id="Группа_2" data-name="Группа 2" xmlns="http://www.w3.org/2000/svg" width="35" height="35" viewBox="0 0 35 35">
  <metadata><?xpacket begin="﻿" id="W5M0MpCehiHzreSzNTczkc9d"?>
<x:xmpmeta xmlns:x="adobe:ns:meta/" x:xmptk="Adobe XMP Core 5.6-c138 79.159824, 2016/09/14-01:09:01        ">
   <rdf:RDF xmlns:rdf="http://www.w3.org/1999/02/22-rdf-syntax-ns#">
      <rdf:Description rdf:about=""/>
   </rdf:RDF>
</x:xmpmeta>
                                                                                                    
                                                                                                    
                                                                                                    
                                                                                                    
                                                                                                    
                                                                                                    
                                                                                                    
                                                                                                    
                                                                                                    
                                                                                                    
                                                                                                    
                                                                                                    
                                                                                                    
                                                                                                    
                                                                                                    
                                                                                                    
                                                                                                    
                                                                                                    
                                                                                                    
                                                                                                    
                           
<?xpacket end="w"?></metadata>
<defs>
    <style>
      .cls-1 {
        fill: #385543;
        fill-opacity: 0;
        stroke: #385543;
        stroke-linejoin: round;
        stroke-width: 2px;
      }

      .cls-2 {
        fill: #385543;
        fill-rule: evenodd;
      }
    </style>
  </defs>
  <circle class="cls-1" cx="17.5" cy="17.5" r="16.5"/>
  <path class="cls-2" d="M1283.25,57.711a0.765,0.765,0,0,1-.66.151,18.826,18.826,0,0,0-8.27-.159,8.666,8.666,0,0,1,5.89-2.007,2,2,0,0,0,1.99-1.991V43.923h0.57a0.781,0.781,0,0,1,.78.78V57.1A0.771,0.771,0,0,1,1283.25,57.711Zm-3.05-3.227a9.667,9.667,0,0,0-6.96,2.579V44.82a0.745,0.745,0,0,1,.1-0.4c1.73-2.774,5.04-3.2,6.87-3.2h0a0.779,0.779,0,0,1,.78.78V53.7A0.784,0.784,0,0,1,1280.2,54.484Zm-15.15,0a0.782,0.782,0,0,1-.78-0.78v-11.7a0.779,0.779,0,0,1,.78-0.78h0c1.82,0,5.14.426,6.87,3.2a0.745,0.745,0,0,1,.1.4V57.064A9.674,9.674,0,0,0,1265.05,54.484Zm5.89,3.218a18.83,18.83,0,0,0-8.27.159,0.778,0.778,0,0,1-.96-0.76V44.7a0.781,0.781,0,0,1,.78-0.78h0.57V53.7a2,2,0,0,0,1.99,1.991A8.682,8.682,0,0,1,1270.94,57.7Z" transform="translate(-1255 -32)"/>
</svg>
