<svg xmlns="http://www.w3.org/2000/svg" width="23.5" height="17.65" viewBox="0 0 23.5 17.65">
  <metadata><?xpacket begin="﻿" id="W5M0MpCehiHzreSzNTczkc9d"?>
<x:xmpmeta xmlns:x="adobe:ns:meta/" x:xmptk="Adobe XMP Core 5.6-c138 79.159824, 2016/09/14-01:09:01        ">
   <rdf:RDF xmlns:rdf="http://www.w3.org/1999/02/22-rdf-syntax-ns#">
      <rdf:Description rdf:about=""/>
   </rdf:RDF>
</x:xmpmeta>
                                                                                                    
                                                                                                    
                                                                                                    
                                                                                                    
                                                                                                    
                                                                                                    
                                                                                                    
                                                                                                    
                                                                                                    
                                                                                                    
                                                                                                    
                                                                                                    
                                                                                                    
                                                                                                    
                                                                                                    
                                                                                                    
                                                                                                    
                                                                                                    
                                                                                                    
                                                                                                    
                           
<?xpacket end="w"?></metadata>
<defs>
    <style>
      .cls-1 {
        fill: #b5cfd2;
        fill-rule: evenodd;
      }
    </style>
  </defs>
  <path class="cls-1" d="M909.753,8808.57c-3,3.99-7.078,6.45-11.569,6.45a12.441,12.441,0,0,1-3.285-.45l1.854-1.85a4.852,4.852,0,0,0,1.753.22,4.875,4.875,0,0,0,4.384-6.36l2.98-2.98a18.313,18.313,0,0,1,3.883,3.86A0.93,0.93,0,0,1,909.753,8808.57Zm-10.85,2,1.84-1.84A2.678,2.678,0,0,1,898.9,8810.57Zm-9.554,5.31,16.263-16.26,1.414,1.41-16.263,16.26Zm9.1-10.51-2.9,2.9a2.87,2.87,0,0,1-.019-0.43,2.678,2.678,0,0,1,2.486-2.49A2.051,2.051,0,0,1,898.445,8805.37Zm-0.583-2.3a4.908,4.908,0,0,0-4.138,7.02l-2.682,2.68a17.894,17.894,0,0,1-4.428-4.21,0.93,0.93,0,0,1,0-1.11c3.006-3.99,7.079-6.45,11.57-6.45a12.261,12.261,0,0,1,3.95.68l-1.87,1.87A4.955,4.955,0,0,0,897.862,8803.07Z" transform="translate(-886.438 -8799.63)"/>
</svg>
